<svg width="36" height="24" viewBox="0 0 36 24" fill="none" xmlns="http://www.w3.org/2000/svg">
<path d="M30.1094 6.33594V19.3333C32.4767 17.9967 34.4404 16.4388 35.8639 14.8005V6.33594H30.1094Z" fill="#0066B2"/>
<path d="M6.31474 21.3513L6.03483 21.1603C4.86094 20.3184 4.02989 19.2595 3.65234 17.9988C2.55657 14.3513 5.52709 10.0181 10.7716 6.77639L10.9408 6.33374C3.53083 10.0268 -1.00197 15.0739 0.189273 19.0382C1.70165 24.0788 11.8977 25.4892 23.144 22.2951C16.3264 24.1829 9.8863 23.699 6.31691 21.3491L6.31474 21.3513Z" fill="#0066B2"/>
<path d="M23.1416 22.295C23.3781 22.2299 23.6146 22.1627 23.8511 22.0911C23.6146 22.1627 23.3781 22.2278 23.1416 22.295Z" fill="#0066B2"/>
<path d="M20.9873 0.624756H14.0026C14.0026 0.624756 6.79223 19.791 6.49713 20.57C7.74262 21.4076 9.39387 21.6072 10.8043 21.0951C12.2147 20.583 13.3517 19.3679 13.7704 17.9271C16.1898 17.9271 18.6114 17.9293 21.0307 17.9315C21.4734 19.3831 22.6494 20.5939 24.088 21.0799C25.5266 21.566 27.1931 21.3164 28.4277 20.429L20.9873 0.624756ZM15.183 13.4486L17.4462 5.9973L19.7332 13.4486H15.1808H15.183Z" fill="#0066B2"/>
<path d="M31.8362 1.74239L31.1462 1.5254C30.8489 1.4321 30.6124 1.19993 30.5126 0.904827L30.2327 0.0759447C30.2283 0.0650954 30.224 0.0564161 30.2175 0.0455668C30.2131 0.0412271 30.211 0.0368874 30.2066 0.0325477C30.1958 0.0238683 30.1849 0.0151889 30.1698 0.00867939C30.1654 0.00867939 30.1611 0.0043397 30.1546 0.0043397C30.1459 0.00216985 30.1394 0 30.1307 0C30.122 0 30.1133 0 30.1068 0.0043397C30.1025 0.0043397 30.096 0.00650954 30.0916 0.00867939C30.0764 0.0151889 30.0634 0.0238683 30.0526 0.0347176C30.0482 0.0390573 30.0439 0.043397 30.0396 0.0499065C30.0352 0.0585859 30.0309 0.0650954 30.0265 0.0759447L29.7466 0.904827C29.6447 1.19993 29.4103 1.4321 29.1109 1.5254L28.9655 1.57097C26.9258 1.63824 24.7343 1.89211 22.4581 2.34127L22.4928 2.43674C24.7951 2.08522 26.9888 2.01362 28.9763 2.19589L29.1651 2.26749C29.4298 2.36947 29.6381 2.58212 29.7358 2.84901L30.0222 3.63884C30.0222 3.63884 30.0287 3.64969 30.0331 3.65619C30.0331 3.66053 30.0374 3.6627 30.0396 3.66704C30.0439 3.67355 30.0482 3.67789 30.0548 3.68223C30.0634 3.69091 30.0743 3.69742 30.0851 3.70176C30.0916 3.70393 30.0981 3.7061 30.1047 3.70827H30.1264C30.1264 3.70827 30.1394 3.70827 30.1459 3.70827C30.1524 3.70827 30.1589 3.70393 30.1654 3.70176C30.1763 3.69742 30.1849 3.69091 30.1958 3.68223C30.2023 3.67789 30.2066 3.67138 30.211 3.66487C30.2131 3.66053 30.2153 3.65619 30.2197 3.65185C30.2218 3.64752 30.2262 3.64318 30.2283 3.63667L30.5148 2.84684C30.6124 2.57995 30.8207 2.3673 31.0854 2.26532L31.8405 1.97673C31.8883 1.9572 31.9208 1.91164 31.9208 1.85956C31.9208 1.80531 31.8861 1.75541 31.8319 1.74022L31.8362 1.74239Z" fill="#0066B2"/>
<path d="M31.0117 0.624756C31.2244 0.930705 31.5325 1.16505 31.897 1.28005L33.0948 1.6576C33.1859 1.68581 33.2488 1.77044 33.2488 1.86591C33.2488 1.96138 33.1946 2.03733 33.11 2.06988L31.8016 2.57111C31.3416 2.74687 30.9792 3.11574 30.8099 3.58226L30.4628 4.53916H35.8678V0.624756H31.0161H31.0117Z" fill="#0066B2"/>
</svg>
