<svg width="110" height="25" viewBox="0 0 110 25" fill="none" xmlns="http://www.w3.org/2000/svg">
<path d="M26.0844 16.9938V13.5912H24.9308V10.4386H26.0844V7.95874H30.1794V10.4386H32.448V13.5912H30.1794V16.0903C30.1794 16.84 30.5255 17.1092 31.1792 17.1092C31.5637 17.1092 31.9867 16.9938 32.4289 16.8016V19.9543C31.7751 20.3003 30.7946 20.5117 29.8141 20.5117C27.3726 20.531 26.0844 19.3968 26.0844 16.9938Z" fill="white"/>
<path d="M58.5946 13.572V10.3617H56.2684V8.03564H52.1733V10.3617H51.0967V10.7846C51.8081 11.4574 52.1157 12.5147 52.1541 13.572V17.0131C52.1541 19.416 53.4999 20.531 55.9223 20.531C56.9219 20.531 57.8642 20.3195 58.5755 19.9735V16.8208C58.0371 17.0131 57.6719 17.1284 57.2874 17.1284C56.6336 17.1284 56.2491 16.8593 56.2491 16.1096V13.572H58.5946Z" fill="white"/>
<path d="M48.251 10.2083C46.8666 10.2083 45.9439 10.9964 45.2133 11.823V10.362H41.1183V11.9384C41.8296 12.8996 42.1373 14.1491 42.1373 15.6101C42.1373 15.8408 42.1564 16.1099 42.1373 16.3021L42.0988 16.7827H41.1183H40.1761L41.1183 17.5901L42.0604 18.3206L41.7143 18.7435C41.522 18.9934 41.4642 19.2049 41.1183 19.4163V20.3775H45.2133V15.1487C45.2133 14.3029 45.7901 13.8223 46.4054 13.8223C47.0204 13.8223 47.5397 14.3029 47.5397 15.1487V20.3775H51.6346V13.8415C51.6539 11.5923 50.3273 10.2083 48.251 10.2083Z" fill="white"/>
<path d="M41.6373 15.61C41.6373 12.6111 40.0033 10.189 36.5041 10.189C35.0623 10.189 33.8126 10.7464 32.9091 11.65V14.1106H31.5631C31.4671 14.5143 31.4671 14.9564 31.4671 15.3986V15.437C31.4671 15.8215 31.4671 16.1867 31.544 16.5327C31.7554 16.4943 31.9477 16.4174 32.1784 16.3213L32.8897 15.9753V19.1279C33.8318 20.0314 35.1968 20.5505 36.831 20.5505C38.965 20.5505 40.3494 19.6662 41.3298 18.3974L39.1188 16.6481C38.4651 17.3209 37.85 17.6093 37.1193 17.6093C36.2349 17.6093 35.5429 17.1479 35.2544 16.2444H41.5988C41.6373 16.0714 41.6373 15.8215 41.6373 15.61ZM35.2353 14.4566C35.3698 13.5723 35.8505 12.9764 36.5425 12.9764C37.2732 12.9764 37.8307 13.5723 37.9076 14.4566H35.2353Z" fill="white"/>
<path d="M67.8032 15.61C67.8032 12.6111 66.169 10.189 62.67 10.189C61.2472 10.189 60.0168 10.7272 59.1324 11.5923V14.1106H57.7482C57.6522 14.5143 57.5368 14.9564 57.5368 15.3986V15.437C57.5368 15.8215 57.6137 16.1867 57.6713 16.5327C57.8829 16.4943 58.1134 16.4174 58.3441 16.3213L59.1517 15.9753V19.1664C60.0937 20.0314 61.4395 20.5312 63.0352 20.5312C65.1694 20.5312 66.5535 19.647 67.534 18.3782L65.3232 16.6289C64.6695 17.3017 64.0542 17.59 63.3235 17.59C62.4393 17.59 61.7471 17.1287 61.4588 16.2252H67.8032C67.8032 16.0714 67.8032 15.8215 67.8032 15.61ZM61.401 14.4566C61.5357 13.5723 62.0163 12.9764 62.7085 12.9764C63.4389 12.9764 63.9966 13.5723 64.0735 14.4566H61.401Z" fill="white"/>
<path d="M74.4744 10.2083C73.0902 10.2083 72.1673 10.9964 71.4369 11.823V10.362H67.3417V11.996C68.053 12.9572 68.3222 14.1875 68.3222 15.6485C68.3222 15.8792 68.3415 16.0907 68.3222 16.3406L68.2838 16.7827H67.3417H66.4575L67.3417 17.5132L68.2646 18.2629L67.9185 18.7051C67.7456 18.9358 67.5149 19.1472 67.3417 19.3587V20.3583H71.4369V15.1295C71.4369 14.2836 72.0135 13.803 72.6287 13.803C73.244 13.803 73.7631 14.2836 73.7631 15.1295V20.3583H77.8582V13.8223C77.8582 11.5923 76.5507 10.2083 74.4744 10.2083Z" fill="white"/>
<path d="M26.3152 2.7687C24.085 1.32694 21.1435 1.25005 18.7981 2.73027C18.6827 2.80716 18.5481 2.88406 18.4328 2.98018C15.6643 4.97943 14.8184 8.63192 16.2411 11.6116C16.2987 11.7269 16.3564 11.8423 16.4141 11.9576C16.4525 12.0153 16.4718 12.0729 16.5102 12.1306C16.5295 12.1691 16.5679 12.2075 16.5871 12.2652C16.6833 12.419 16.7794 12.5727 16.8755 12.7073C17.6061 13.7069 18.5481 14.4567 19.6055 14.9373C17.856 11.5347 19.1249 7.01712 22.7009 4.42195C23.8352 3.59534 25.0655 3.05707 26.3152 2.78793C26.3152 2.76872 26.3152 2.7687 26.3152 2.7687Z" fill="white"/>
<path d="M15.2226 13.7833C13.3385 11.3611 12.5118 7.93934 13.2808 4.45988C13.6461 2.78743 14.3382 1.26876 15.2611 0H15.2419C11.8389 0.519036 8.9551 3.05654 8.16686 6.63213C7.34016 10.3423 9.08967 14.0332 12.2042 15.8595C12.5311 16.0517 12.8579 16.2247 13.2232 16.3593C13.3577 16.4169 13.5115 16.4746 13.6653 16.5323C13.7423 16.5515 13.8192 16.59 13.9153 16.6284C14.1844 16.7053 14.4536 16.7822 14.7228 16.8399C16.2031 17.1667 17.7027 17.0898 19.0485 16.6669C17.4912 16.0901 16.2031 15.0713 15.2226 13.7833Z" fill="white"/>
<path d="M8.8006 16.9173C7.01264 15.7062 5.43613 14.0337 4.26338 11.9384C3.24443 10.0929 2.64845 8.15128 2.45619 6.20972L2.43696 6.22894C0.437502 8.63188 -0.408424 11.8422 0.187568 14.918C0.399049 16.0137 0.764333 17.071 1.3411 18.0899C3.85965 22.6074 9.20434 24.5298 13.9338 22.915C13.9531 22.8957 13.9915 22.8957 14.0107 22.8766C14.2607 22.7804 14.5106 22.6843 14.7605 22.5881C14.799 22.569 14.8374 22.5499 14.8759 22.5305C15.145 22.4152 15.395 22.2807 15.6641 22.146C17.2983 21.2425 18.6056 19.9546 19.5092 18.4551C16.0102 19.7816 12.0497 19.1087 8.8006 16.9173Z" fill="white"/>
<path d="M26.4882 22.4342H25.9692V22.0688H27.4303V22.4342H26.9112V23.9721H26.4882V22.4342Z" fill="white"/>
<path d="M29.6989 23.1645H29.0067V23.6066H29.7949V23.9527H28.5837V22.0495H29.7564V22.3955H29.0067V22.7992H29.6989V23.1645ZM29.3143 21.6267L29.6026 21.9726H29.295L29.1605 21.7996L29.026 21.9726H28.7184L29.0067 21.6267H29.3143Z" fill="white"/>
<path d="M30.9675 23.9721V22.0688H31.4672L31.8711 22.761C31.9864 22.9532 32.1016 23.203 32.1785 23.4146C32.1594 23.1646 32.14 22.9148 32.14 22.6265V22.0688H32.5439V23.9721H32.1016L31.6979 23.2415C31.5825 23.0301 31.4672 22.7994 31.3711 22.5687H31.3518C31.3711 22.8185 31.3711 23.0877 31.3711 23.3953V23.9721H30.9675Z" fill="white"/>
<path d="M36.8888 23.2418C36.8888 23.0111 36.8696 22.7419 36.8696 22.4536C36.8119 22.7035 36.7349 22.9726 36.658 23.184L36.4273 23.9337H36.1005L35.8891 23.2033C35.8314 22.9726 35.7738 22.7035 35.716 22.4536C35.716 22.7035 35.6969 23.0111 35.6775 23.2418L35.6391 23.9721H35.2354L35.3508 22.0691H35.9276L36.1199 22.7035C36.1775 22.9148 36.2352 23.1649 36.2737 23.3763H36.2928C36.3504 23.1649 36.4082 22.8957 36.4658 22.6843L36.658 22.0498H37.2157L37.3118 23.953H36.9272L36.8888 23.2418Z" fill="white"/>
<path d="M39.0039 22.0688V23.9721H38.5809V22.0688H39.0039Z" fill="white"/>
<path d="M41.4076 23.1644H40.7154V23.6065H41.5036V23.9525H40.2924V22.0493H41.4652V22.3954H40.7154V22.799H41.4076V23.1644ZM41.0231 21.6263L41.2729 21.9724H41.0037L40.8884 21.7995L40.7539 21.9724H40.4847L40.7345 21.6263H41.0231ZM41.3307 21.4341L41.523 21.761H41.2922L40.9653 21.4341H41.3307Z" fill="white"/>
<path d="M42.6948 23.9721V22.0688H43.1947L43.5984 22.761C43.7138 22.9532 43.8291 23.203 43.906 23.4146C43.8869 23.1646 43.8676 22.9148 43.8676 22.6265V22.0688H44.2713V23.9721H43.8291L43.4255 23.2415C43.3101 23.0301 43.1947 22.7994 43.0985 22.5687H43.0794C43.0985 22.8185 43.0985 23.0877 43.0985 23.3953V23.9721H42.6948Z" fill="white"/>
<path d="M48.2128 23.9721C48.1743 23.9336 48.1358 23.8952 48.0974 23.8376C47.982 23.9336 47.8091 24.0105 47.5784 24.0105C47.1169 24.0105 46.9246 23.7414 46.9246 23.4722C46.9246 23.2224 47.0593 23.0492 47.29 22.9339C47.2131 22.8379 47.1362 22.7034 47.1362 22.5687C47.1362 22.338 47.3285 22.0688 47.7128 22.0688C48.0014 22.0688 48.2321 22.242 48.2321 22.5111C48.2321 22.7034 48.1167 22.8763 47.8475 22.9917V23.0108C47.9629 23.1261 48.0783 23.2799 48.1743 23.3762C48.2512 23.2608 48.309 23.0877 48.3281 22.9148H48.7127C48.6549 23.203 48.5589 23.4531 48.405 23.6453C48.5204 23.7607 48.6164 23.8952 48.7318 24.0296H48.2128V23.9721ZM47.9051 23.5876C47.7898 23.4722 47.6359 23.2993 47.4821 23.1261C47.4054 23.1839 47.3285 23.2608 47.3285 23.3953C47.3285 23.5684 47.4439 23.7029 47.6553 23.7029C47.7513 23.6838 47.8475 23.6453 47.9051 23.5876ZM47.6744 22.2996C47.559 22.2996 47.5014 22.3958 47.5014 22.4918C47.5014 22.588 47.5399 22.6649 47.6359 22.761C47.7706 22.6649 47.8475 22.588 47.8475 22.4727C47.8475 22.3958 47.7898 22.2996 47.6744 22.2996Z" fill="white"/>
<path d="M51.5004 23.9721L51.0581 22.0688H51.5196L51.6541 22.857C51.6925 23.0877 51.731 23.3377 51.7694 23.53C51.8079 23.3184 51.8463 23.0877 51.8848 22.857L52.0386 22.0882H52.5001L52.6539 22.8954C52.6923 23.1261 52.7308 23.3184 52.7499 23.53C52.7692 23.3184 52.8268 23.0877 52.8653 22.8763L53.0191 22.1073H53.4614L52.9615 24.0105H52.5001L52.3462 23.1839C52.3078 22.9917 52.2693 22.8185 52.2502 22.588C52.2118 22.7994 52.1924 22.9917 52.1348 23.1839L51.9617 24.0105H51.5004V23.9721Z" fill="white"/>
<path d="M55.7304 23.1649H55.0382V23.607H55.8265V23.953H54.6152V22.0498H55.788V22.3959H55.0382V22.7997H55.7304V23.1649Z" fill="white"/>
<path d="M57.0181 22.0883C57.1335 22.0691 57.3642 22.0498 57.5758 22.0498C57.8448 22.0498 57.9986 22.0691 58.1333 22.1652C58.2678 22.2421 58.364 22.3574 58.364 22.5497C58.364 22.7228 58.2678 22.8764 58.0564 22.9533C58.2678 23.0111 58.441 23.184 58.441 23.4147C58.441 23.5878 58.364 23.7223 58.2487 23.8185C58.114 23.9337 57.8833 23.9915 57.4989 23.9915C57.2873 23.9915 57.1335 23.9721 57.0375 23.9721V22.0883H57.0181ZM57.4411 22.8188H57.5758C57.8064 22.8188 57.9217 22.7228 57.9217 22.5881C57.9217 22.4536 57.8064 22.3767 57.6141 22.3767C57.518 22.3767 57.4605 22.3767 57.422 22.3959V22.8188H57.4411ZM57.4411 23.6647C57.4796 23.6647 57.5374 23.6647 57.6141 23.6647C57.8064 23.6647 57.9795 23.5878 57.9795 23.3956C57.9795 23.2033 57.8063 23.1264 57.5949 23.1264H57.4411V23.6647Z" fill="white"/>
<path d="M61.5169 22.0688V22.7994H62.2282V22.0688H62.6513V23.9721H62.2282V23.1839H61.5169V23.9721H61.0939V22.0688H61.5169Z" fill="white"/>
<path d="M65.6705 22.9918C65.6705 23.6261 65.2859 23.9913 64.7284 23.9913C64.1707 23.9913 63.8248 23.5683 63.8248 23.0302C63.8248 22.4535 64.19 22.0305 64.7475 22.0305C65.3628 22.0305 65.6705 22.4728 65.6705 22.9918ZM64.3054 23.0302C64.3054 23.4148 64.4784 23.6646 64.7669 23.6646C65.0552 23.6646 65.2281 23.3954 65.2281 23.0109C65.2281 22.6649 65.0743 22.3766 64.7669 22.3766C64.4784 22.3766 64.3054 22.6457 64.3054 23.0302Z" fill="white"/>
<path d="M66.8615 23.5301C66.9768 23.5877 67.15 23.6453 67.3421 23.6453C67.5343 23.6453 67.6497 23.5684 67.6497 23.4339C67.6497 23.3185 67.5537 23.2416 67.3229 23.1647C67.0153 23.0494 66.8039 22.8764 66.8039 22.6073C66.8039 22.2806 67.0731 22.0305 67.5152 22.0305C67.7266 22.0305 67.8804 22.069 67.9958 22.1267L67.8998 22.4728C67.8229 22.4344 67.6882 22.3766 67.4959 22.3766C67.3036 22.3766 67.2267 22.4728 67.2267 22.5688C67.2267 22.6842 67.3229 22.7418 67.5728 22.838C67.8998 22.9533 68.0727 23.1456 68.0727 23.3954C68.0727 23.7222 67.8228 23.9913 67.3036 23.9913C67.0922 23.9913 66.8808 23.9337 66.7654 23.876L66.8615 23.5301Z" fill="white"/>
<path d="M69.6487 22.4342H69.1297V22.0688H70.5908V22.4342H70.0717V23.9721H69.6487V22.4342Z" fill="white"/>
<path d="M72.1683 22.0688V23.9721H71.7261V22.0688H72.1683Z" fill="white"/>
<path d="M73.4373 23.9721V22.0688H73.9372L74.3408 22.761C74.4562 22.9532 74.5716 23.203 74.6485 23.4146C74.6294 23.1646 74.61 22.9148 74.61 22.6265V22.0688H75.0139V23.9721H74.5716L74.1679 23.2415C74.0525 23.0301 73.9372 22.7994 73.8411 22.5687H73.8218C73.8411 22.8185 73.8411 23.0877 73.8411 23.3953V23.9721H73.4373Z" fill="white"/>
<path d="M77.878 23.8761C77.7435 23.9146 77.4935 23.9915 77.2436 23.9915C76.8975 23.9915 76.6477 23.8952 76.4745 23.7416C76.3016 23.5685 76.2053 23.3187 76.2053 23.0495C76.2053 22.4152 76.6668 22.0498 77.2821 22.0498C77.5319 22.0498 77.7242 22.0883 77.8011 22.146L77.7051 22.4921C77.6088 22.4536 77.4743 22.4152 77.2627 22.4152C76.8975 22.4152 76.6283 22.6074 76.6283 23.0302C76.6283 23.434 76.8784 23.6454 77.2243 23.6454C77.3205 23.6454 77.3974 23.6263 77.4359 23.6263V23.2225H77.1474V22.8764H77.8589V23.8761H77.878Z" fill="white"/>
<path d="M84.3937 10.2283C87.2005 10.2285 89.4493 12.4967 89.4494 15.2839C89.4494 18.0712 87.1812 20.3394 84.3937 20.3396C81.6061 20.3396 79.3371 18.0713 79.3371 15.2839C79.3372 12.4966 81.6061 10.2283 84.3937 10.2283ZM81.59 13.5417C81.5597 13.5417 81.5341 13.5518 81.5139 13.572C81.4939 13.5921 81.4837 13.6172 81.4836 13.6472C81.4836 13.6607 81.4876 13.6763 81.4943 13.6931L82.5744 16.9343C82.5879 16.9747 82.6095 17.009 82.6398 17.0359C82.6701 17.0628 82.713 17.0759 82.7668 17.0759H83.3215C83.3753 17.0759 83.4181 17.0628 83.4484 17.0359C83.4787 17.009 83.5004 16.9747 83.5139 16.9343L84.5939 13.6931C84.6007 13.6763 84.6037 13.6607 84.6037 13.6472C84.6036 13.6171 84.592 13.5921 84.5685 13.572C84.5484 13.5519 84.5251 13.5418 84.4982 13.5417H84.0539C84.0068 13.5417 83.9695 13.5549 83.9426 13.5818C83.919 13.6053 83.9044 13.6295 83.8976 13.6531L83.0441 16.2527L82.1906 13.6531C82.1839 13.6295 82.1668 13.6053 82.1398 13.5818C82.1163 13.5551 82.0812 13.5418 82.0344 13.5417H81.59ZM85.259 13.5417C85.2255 13.5418 85.1975 13.5535 85.174 13.5769C85.1504 13.6005 85.1379 13.6307 85.1379 13.6677V16.9539C85.1379 16.9875 85.1504 17.0162 85.174 17.0398C85.1975 17.0632 85.2255 17.0758 85.259 17.0759H85.6838C85.7207 17.0759 85.7511 17.0633 85.7746 17.0398C85.798 17.0163 85.8098 16.9874 85.8098 16.9539V14.783L87.259 16.9949C87.269 17.0016 87.284 17.0166 87.3039 17.0398C87.3241 17.0634 87.3583 17.0759 87.4055 17.0759H87.799C87.8327 17.0759 87.8614 17.0633 87.8849 17.0398C87.9083 17.0163 87.9201 16.9859 87.9201 16.949V13.6677C87.9201 13.6308 87.9084 13.6004 87.8849 13.5769C87.8614 13.5534 87.8311 13.5418 87.7941 13.5417H87.3703C87.3333 13.5417 87.3021 13.5533 87.2785 13.5769C87.2585 13.6004 87.2482 13.6309 87.2482 13.6677V15.8835L85.7941 13.6218C85.7873 13.6118 85.7724 13.5968 85.7492 13.5769C85.7291 13.5534 85.6955 13.5418 85.6486 13.5417H85.259ZM80.8986 16.3289C80.8652 16.3289 80.8371 16.3406 80.8137 16.364C80.7901 16.3875 80.7775 16.4179 80.7775 16.4548V16.9539C80.7775 16.9874 80.7901 17.0163 80.8137 17.0398C80.837 17.063 80.8653 17.0749 80.8986 17.075H81.4035C81.437 17.0749 81.466 17.0633 81.4894 17.0398C81.5129 17.0163 81.5246 16.9874 81.5246 16.9539V16.4548C81.5246 16.418 81.5128 16.3875 81.4894 16.364C81.466 16.3405 81.437 16.3289 81.4035 16.3289H80.8986Z" fill="white"/>
<path d="M92.332 19.4503C92.332 19.6425 92.236 19.8924 91.9861 19.8924C91.9668 19.8924 91.7169 19.8924 91.6592 19.6233C91.64 19.5848 91.64 19.5272 91.64 19.431C91.64 19.1235 91.8323 19.0081 91.9861 19.0081C92.1591 19.0081 92.3514 19.1619 92.332 19.4503ZM91.2939 18.1431V20.1808H91.64V20.027C91.717 20.1231 91.8514 20.2192 92.0437 20.2192C92.3898 20.2192 92.6974 19.9116 92.6974 19.4503C92.6974 18.9889 92.3898 18.6813 92.063 18.6813C91.9092 18.6813 91.7554 18.739 91.64 18.8543V18.1431H91.2939Z" fill="white"/>
<path d="M94.0823 18.739L93.7168 20.0077L93.6399 20.2768C93.5439 20.5845 93.4285 20.6805 93.1593 20.6805C93.044 20.6805 92.9864 20.6614 92.9479 20.6614V20.3537C92.9864 20.3537 93.0055 20.3537 93.044 20.3537C93.0633 20.3537 93.1402 20.3537 93.1978 20.3153C93.2363 20.296 93.2747 20.2192 93.2747 20.1999L92.7557 18.7197H93.1209L93.4479 19.7963L93.7168 18.7197H94.0823V18.739Z" fill="white"/>
<path d="M102.33 20.0646H102.541C102.56 20.0646 102.56 20.0646 102.58 20.0453L103.445 18.642L103.906 20.2568C103.906 20.276 103.926 20.276 103.926 20.276H104.829C104.848 20.276 104.848 20.276 104.848 20.2568L103.887 17.2387C103.887 17.2195 103.868 17.2195 103.868 17.2195H103.522C103.503 17.2195 103.503 17.2195 103.483 17.2387L102.33 19.0457L101.176 17.2387C101.176 17.2387 101.157 17.2195 101.138 17.2195H100.792C100.773 17.2195 100.773 17.2195 100.773 17.2387L99.8113 20.2568C99.8113 20.276 99.8113 20.276 99.8306 20.276H100.734C100.753 20.276 100.753 20.276 100.753 20.2568L101.215 18.642L102.08 20.0453C102.08 20.0453 102.099 20.0646 102.118 20.0646H102.33Z" fill="white"/>
<path d="M99.8496 18.5656C99.8496 18.5464 99.8496 18.5464 99.8496 18.5656L99.7152 18.5464H98.8307H97.2736C97.1389 18.5464 97.0235 18.6617 97.0235 18.7963C97.0235 18.9309 97.1389 19.0462 97.2736 19.0462H98.8116C98.6386 19.5268 98.004 19.8728 97.2736 19.8728C96.3891 19.8728 95.6969 19.373 95.6969 18.7386C95.6969 18.1043 96.4084 17.6044 97.2736 17.6044C97.7542 17.6044 98.1772 17.7582 98.4655 17.9889C98.4655 17.9889 98.4655 17.9889 98.4848 17.9889H99.5422C99.5613 17.9889 99.5613 17.9889 99.5613 17.9697C99.5613 17.9697 99.5613 17.9697 99.5613 17.9505C99.1192 17.4699 98.2541 17.1431 97.2927 17.1431C95.8507 17.1431 94.678 17.8543 94.678 18.7194C94.678 19.5845 95.8507 20.2957 97.2927 20.2957C98.7347 20.2957 99.9074 19.5845 99.9074 18.7194C99.869 18.681 99.869 18.6233 99.8496 18.5656Z" fill="white"/>
<path d="M107.386 17.1812C105.944 17.1812 104.771 17.8924 104.771 18.7575C104.771 19.6225 105.944 20.3338 107.386 20.3338C108.827 20.3338 110 19.6225 110 18.7575C110 17.8732 108.827 17.1812 107.386 17.1812ZM107.386 19.8725C106.501 19.8725 105.809 19.3726 105.809 18.7383C105.809 18.1039 106.52 17.6041 107.386 17.6041C108.27 17.6041 108.962 18.1039 108.962 18.7383C108.962 19.3726 108.251 19.8725 107.386 19.8725Z" fill="white"/>
</svg>
