<svg width="189" height="42" viewBox="0 0 189 42" fill="none" xmlns="http://www.w3.org/2000/svg">
<path d="M44.817 29.1982V23.352H42.8348V17.9351H44.817V13.6743H51.8528V17.9351H55.7508V23.352H51.8528V27.6458C51.8528 28.934 52.4475 29.3964 53.5707 29.3964C54.2314 29.3964 54.9582 29.1982 55.7179 28.8679V34.2848C54.5947 34.8793 52.91 35.2426 51.2253 35.2426C47.0303 35.2757 44.817 33.3269 44.817 29.1982Z" fill="white"/>
<path d="M100.676 23.3187V17.8027H96.6792V13.8062H89.643V17.8027H87.7933V18.5294C89.0155 19.6854 89.5441 21.5021 89.6101 23.3187V29.231C89.6101 33.3597 91.9223 35.2754 96.0845 35.2754C97.8021 35.2754 99.421 34.9121 100.643 34.3175V28.9007C99.7182 29.231 99.0907 29.4292 98.4299 29.4292C97.3067 29.4292 96.646 28.9667 96.646 27.6786V23.3187H100.676Z" fill="white"/>
<path d="M82.904 17.5393C80.5254 17.5393 78.9401 18.8935 77.6847 20.3138V17.8035H70.6489V20.512C71.871 22.1634 72.3996 24.3104 72.3996 26.8206C72.3996 27.217 72.4325 27.6794 72.3996 28.0097L72.3335 28.8354H70.6489H69.0299L70.6489 30.2227L72.2675 31.4778L71.6728 32.2044C71.3424 32.6338 71.2432 32.9972 70.6489 33.3605V35.0119H77.6847V26.0279C77.6847 24.5746 78.6758 23.7488 79.7329 23.7488C80.7897 23.7488 81.6819 24.5746 81.6819 26.0279V35.0119H88.7177V23.7819C88.7509 19.9174 86.4716 17.5393 82.904 17.5393Z" fill="white"/>
<path d="M71.5411 26.8202C71.5411 21.6676 68.7336 17.5059 62.7213 17.5059C60.2441 17.5059 58.097 18.4637 56.5444 20.0161V24.2439H54.2319C54.0669 24.9375 54.0669 25.6972 54.0669 26.4569V26.5229C54.0669 27.1835 54.0669 27.8111 54.199 28.4056C54.5623 28.3396 54.8926 28.2074 55.2891 28.0423L56.5112 27.4478V32.8646C58.1298 34.417 60.4752 35.3088 63.2831 35.3088C66.9496 35.3088 69.3282 33.7895 71.0129 31.6095L67.2139 28.6038C66.0907 29.7598 65.0339 30.2553 63.7785 30.2553C62.2588 30.2553 61.0699 29.4626 60.5741 27.9102H71.475C71.5411 27.6129 71.5411 27.1835 71.5411 26.8202ZM60.5413 24.8384C60.7724 23.3191 61.5984 22.2951 62.7874 22.2951C64.0428 22.2951 65.0006 23.3191 65.1328 24.8384H60.5413Z" fill="white"/>
<path d="M116.498 26.8202C116.498 21.6676 113.69 17.5059 107.678 17.5059C105.234 17.5059 103.12 18.4307 101.6 19.917V24.2439H99.2219C99.0569 24.9375 98.8586 25.6972 98.8586 26.4569V26.5229C98.8586 27.1835 98.9908 27.8111 99.0897 28.4056C99.4533 28.3396 99.8494 28.2074 100.246 28.0423L101.633 27.4478V32.9307C103.252 34.417 105.564 35.2758 108.306 35.2758C111.973 35.2758 114.351 33.7564 116.036 31.5765L112.237 28.5708C111.114 29.7268 110.057 30.2222 108.801 30.2222C107.282 30.2222 106.093 29.4295 105.597 27.8771H116.498C116.498 27.6129 116.498 27.1835 116.498 26.8202ZM105.498 24.8384C105.729 23.3191 106.555 22.2951 107.744 22.2951C109 22.2951 109.958 23.3191 110.09 24.8384H105.498Z" fill="white"/>
<path d="M127.961 17.5393C125.583 17.5393 123.997 18.8935 122.742 20.3138V17.8035H115.706V20.611C116.928 22.2625 117.39 24.3764 117.39 26.8867C117.39 27.283 117.424 27.6464 117.39 28.0758L117.324 28.8354H115.706H114.186L115.706 30.0906L117.291 31.3787L116.697 32.1384C116.4 32.5347 116.003 32.8981 115.706 33.2614V34.9789H122.742V25.9949C122.742 24.5416 123.733 23.7158 124.79 23.7158C125.847 23.7158 126.739 24.5416 126.739 25.9949V34.9789H133.775V23.7488C133.775 19.9174 131.528 17.5393 127.961 17.5393Z" fill="white"/>
<path d="M45.214 4.75676C41.3822 2.27956 36.3282 2.14745 32.2982 4.69073C32.1 4.82283 31.8688 4.95496 31.6706 5.12012C26.9138 8.55519 25.4604 14.8308 27.9048 19.9504C28.0039 20.1486 28.103 20.3468 28.2021 20.5449C28.2682 20.644 28.3012 20.7431 28.3673 20.8422C28.4003 20.9083 28.4664 20.9743 28.4994 21.0734C28.6646 21.3377 28.8298 21.6019 28.9949 21.8331C30.2502 23.5506 31.8688 24.8388 33.6856 25.6645C30.6796 19.8183 32.8598 12.0563 39.0039 7.59734C40.9529 6.17707 43.0668 5.25222 45.214 4.7898C45.214 4.7568 45.214 4.75676 45.214 4.75676Z" fill="white"/>
<path d="M26.1545 23.6822C22.9172 19.5205 21.4968 13.6412 22.8181 7.66288C23.4458 4.7893 24.635 2.17996 26.2205 0H26.1875C20.3407 0.891798 15.3857 5.25169 14.0314 11.3952C12.611 17.7699 15.617 24.1116 20.9683 27.2494C21.5299 27.5797 22.0914 27.877 22.7191 28.1082C22.9503 28.2073 23.2145 28.3064 23.4788 28.4055C23.6109 28.4385 23.7431 28.5045 23.9082 28.5706C24.3707 28.7027 24.8332 28.8348 25.2956 28.9339C27.8391 29.4954 30.4157 29.3633 32.728 28.6367C30.0524 27.6458 27.8391 25.8952 26.1545 23.6822Z" fill="white"/>
<path d="M15.1207 29.0664C12.0487 26.9856 9.33995 24.112 7.32495 20.5118C5.57421 17.3409 4.5502 14.0049 4.21987 10.6689L4.18683 10.702C0.751394 14.8307 -0.702061 20.3466 0.321962 25.6313C0.685325 27.514 1.31295 29.3307 2.30394 31.0812C6.63126 38.8432 15.8144 42.1461 23.9405 39.3717C23.9736 39.3385 24.0396 39.3385 24.0726 39.3057C24.5021 39.1403 24.9315 38.9753 25.3609 38.81C25.427 38.7771 25.4931 38.7443 25.5591 38.7111C26.0216 38.5129 26.451 38.2818 26.9135 38.0504C29.7213 36.498 31.9675 34.2851 33.5201 31.7088C27.5081 33.9878 20.7033 32.8318 15.1207 29.0664Z" fill="white"/>
<path d="M45.5112 38.546H44.6194V37.9182H47.1298V38.546H46.238V41.1883H45.5112V38.546Z" fill="white"/>
<path d="M51.0274 39.801H49.8381V40.5605H51.1924V41.1551H49.1113V37.8851H51.1264V38.4797H49.8381V39.1732H51.0274V39.801ZM50.3667 37.1587L50.8621 37.7529H50.3335L50.1024 37.4558L49.8713 37.7529H49.3428L49.8381 37.1587H50.3667Z" fill="white"/>
<path d="M53.2075 41.1883V37.9182H54.0661L54.76 39.1074C54.9583 39.4377 55.1561 39.867 55.2883 40.2305C55.2554 39.8009 55.2222 39.3717 55.2222 38.8763V37.9182H55.9161V41.1883H55.1561L54.4625 39.933C54.2643 39.5699 54.0661 39.1735 53.9011 38.7771H53.8679C53.9011 39.2063 53.9011 39.6688 53.9011 40.1973V41.1883H53.2075Z" fill="white"/>
<path d="M63.3815 39.9333C63.3815 39.5369 63.3487 39.0744 63.3487 38.5791C63.2494 39.0084 63.1172 39.4708 62.9851 39.834L62.5887 41.1221H62.0272L61.664 39.8672C61.5647 39.4708 61.4658 39.0084 61.3665 38.5791C61.3665 39.0084 61.3336 39.5369 61.3004 39.9333L61.2344 41.1882H60.5408L60.739 37.9185H61.7301L62.0604 39.0084C62.1594 39.3716 62.2587 39.8012 62.3247 40.1643H62.3576C62.4565 39.8012 62.5558 39.3387 62.6547 38.9755L62.9851 37.8853H63.9433L64.1083 41.1553H63.4476L63.3815 39.9333Z" fill="white"/>
<path d="M67.0154 37.9182V41.1883H66.2886V37.9182H67.0154Z" fill="white"/>
<path d="M71.1451 39.8008H69.9558V40.5604H71.3101V41.155H69.229V37.8849H71.244V38.4795H69.9558V39.173H71.1451V39.8008ZM70.4844 37.1582L70.9137 37.7528H70.4512L70.253 37.4557L70.0219 37.7528H69.5594L69.9887 37.1582H70.4844ZM71.013 36.8279L71.3433 37.3896H70.9469L70.3851 36.8279H71.013Z" fill="white"/>
<path d="M73.3579 41.1883V37.9182H74.2169L74.9104 39.1074C75.1087 39.4377 75.3069 39.867 75.439 40.2305C75.4062 39.8009 75.3729 39.3717 75.3729 38.8763V37.9182H76.0665V41.1883H75.3069L74.6133 39.933C74.4151 39.5699 74.2169 39.1735 74.0515 38.7771H74.0186C74.0515 39.2063 74.0515 39.6688 74.0515 40.1973V41.1883H73.3579Z" fill="white"/>
<path d="M82.8384 41.1883C82.7723 41.1222 82.7062 41.0562 82.6402 40.9572C82.4419 41.1222 82.1448 41.2544 81.7484 41.2544C80.9555 41.2544 80.6251 40.7919 80.6251 40.3294C80.6251 39.9002 80.8566 39.6027 81.253 39.4045C81.1208 39.2395 80.9887 39.0085 80.9887 38.7771C80.9887 38.3807 81.3191 37.9182 81.9794 37.9182C82.4752 37.9182 82.8716 38.2157 82.8716 38.6781C82.8716 39.0085 82.6734 39.3056 82.2109 39.5038V39.5366C82.4091 39.7348 82.6073 39.9991 82.7723 40.1644C82.9044 39.9662 83.0037 39.6688 83.0366 39.3717H83.6973C83.598 39.867 83.433 40.2966 83.1687 40.6269C83.367 40.8251 83.532 41.0562 83.7302 41.2872H82.8384V41.1883ZM82.3098 40.5276C82.1116 40.3294 81.8473 40.0323 81.583 39.7348C81.4512 39.8341 81.3191 39.9662 81.3191 40.1973C81.3191 40.4948 81.5173 40.7258 81.8805 40.7258C82.0455 40.693 82.2109 40.6269 82.3098 40.5276ZM81.9134 38.3146C81.7151 38.3146 81.6162 38.4799 81.6162 38.6449C81.6162 38.8103 81.6823 38.9424 81.8473 39.1074C82.0787 38.9424 82.2109 38.8103 82.2109 38.6121C82.2109 38.4799 82.1116 38.3146 81.9134 38.3146Z" fill="white"/>
<path d="M88.4872 41.1883L87.7272 37.9182H88.52L88.7511 39.2724C88.8172 39.6688 88.8833 40.0984 88.9493 40.4287C89.0154 40.0652 89.0815 39.6688 89.1476 39.2724L89.4118 37.9514H90.2047L90.469 39.3384C90.5351 39.7348 90.6011 40.0652 90.634 40.4287C90.6672 40.0652 90.7661 39.6688 90.8322 39.3056L91.0965 37.9843H91.8565L90.9976 41.2544H90.2047L89.9404 39.8341C89.8744 39.5038 89.8083 39.2063 89.7754 38.8103C89.7093 39.1735 89.6761 39.5038 89.5772 39.8341L89.2797 41.2544H88.4872V41.1883Z" fill="white"/>
<path d="M95.7546 39.8012H94.5653V40.5607H95.9196V41.1553H93.8385V37.8853H95.8535V38.4798H94.5653V39.1737H95.7546V39.8012Z" fill="white"/>
<path d="M97.9675 37.9513C98.1657 37.9185 98.5622 37.8853 98.9258 37.8853C99.3879 37.8853 99.6522 37.9185 99.8836 38.0834C100.115 38.2156 100.28 38.4138 100.28 38.7441C100.28 39.0416 100.115 39.3055 99.7515 39.4376C100.115 39.5369 100.412 39.834 100.412 40.2304C100.412 40.5279 100.28 40.7589 100.082 40.9243C99.8504 41.1221 99.454 41.2214 98.7936 41.2214C98.43 41.2214 98.1657 41.1882 98.0007 41.1882V37.9513H97.9675ZM98.6943 39.2066H98.9258C99.3218 39.2066 99.5201 39.0416 99.5201 38.8102C99.5201 38.5791 99.3218 38.447 98.9915 38.447C98.8265 38.447 98.7275 38.447 98.6615 38.4798V39.2066H98.6943ZM98.6943 40.66C98.7604 40.66 98.8597 40.66 98.9915 40.66C99.3218 40.66 99.6193 40.5279 99.6193 40.1976C99.6193 39.8672 99.3218 39.7351 98.9586 39.7351H98.6943V40.66Z" fill="white"/>
<path d="M105.697 37.9182V39.1735H106.92V37.9182H107.646V41.1883H106.92V39.8341H105.697V41.1883H104.971V37.9182H105.697Z" fill="white"/>
<path d="M112.833 39.5042C112.833 40.5941 112.172 41.2215 111.214 41.2215C110.256 41.2215 109.662 40.4948 109.662 39.5702C109.662 38.5793 110.289 37.8525 111.247 37.8525C112.304 37.8525 112.833 38.6125 112.833 39.5042ZM110.487 39.5702C110.487 40.2309 110.785 40.6602 111.28 40.6602C111.776 40.6602 112.073 40.1977 112.073 39.537C112.073 38.9424 111.808 38.4471 111.28 38.4471C110.785 38.4471 110.487 38.9096 110.487 39.5702Z" fill="white"/>
<path d="M114.88 40.4291C115.078 40.528 115.376 40.6269 115.706 40.6269C116.036 40.6269 116.234 40.4948 116.234 40.2638C116.234 40.0656 116.069 39.9334 115.673 39.8013C115.144 39.6031 114.781 39.306 114.781 38.8435C114.781 38.2821 115.244 37.8525 116.003 37.8525C116.367 37.8525 116.631 37.9186 116.829 38.0179L116.664 38.6125C116.532 38.5464 116.3 38.4471 115.97 38.4471C115.64 38.4471 115.508 38.6125 115.508 38.7775C115.508 38.9757 115.673 39.0746 116.102 39.2399C116.664 39.4381 116.961 39.7684 116.961 40.1977C116.961 40.7591 116.532 41.2215 115.64 41.2215C115.277 41.2215 114.913 41.1226 114.715 41.0233L114.88 40.4291Z" fill="white"/>
<path d="M119.67 38.546H118.778V37.9182H121.288V38.546H120.396V41.1883H119.67V38.546Z" fill="white"/>
<path d="M123.998 37.9182V41.1883H123.238V37.9182H123.998Z" fill="white"/>
<path d="M126.178 41.1883V37.9182H127.037L127.73 39.1074C127.929 39.4377 128.127 39.867 128.259 40.2305C128.226 39.8009 128.193 39.3717 128.193 38.8763V37.9182H128.887V41.1883H128.127L127.433 39.933C127.235 39.5699 127.037 39.1735 126.872 38.7771H126.839C126.872 39.2063 126.872 39.6688 126.872 40.1973V41.1883H126.178Z" fill="white"/>
<path d="M133.808 41.0232C133.577 41.0893 133.147 41.2214 132.718 41.2214C132.123 41.2214 131.694 41.0561 131.396 40.7921C131.099 40.4947 130.934 40.0654 130.934 39.603C130.934 38.5131 131.727 37.8853 132.784 37.8853C133.213 37.8853 133.544 37.9513 133.676 38.0506L133.511 38.6452C133.345 38.5791 133.114 38.5131 132.751 38.5131C132.123 38.5131 131.661 38.8434 131.661 39.5698C131.661 40.2636 132.09 40.6268 132.685 40.6268C132.85 40.6268 132.982 40.5939 133.048 40.5939V39.9001H132.553V39.3055H133.775V41.0232H133.808Z" fill="white"/>
<path d="M145.003 17.5737C149.826 17.5737 153.69 21.4711 153.69 26.2603C153.69 31.0495 149.793 34.9478 145.003 34.9478C140.213 34.9477 136.315 31.0495 136.315 26.2603C136.316 21.4711 140.213 17.5738 145.003 17.5737ZM138.999 28.0552C138.941 28.0552 138.892 28.0753 138.852 28.1157C138.811 28.1562 138.791 28.2084 138.791 28.272V29.1304C138.791 29.1881 138.811 29.2374 138.852 29.2778C138.892 29.3183 138.941 29.3393 138.999 29.3394H139.866C139.924 29.3394 139.973 29.3183 140.014 29.2778C140.054 29.2374 140.075 29.1882 140.075 29.1304V28.272C140.075 28.2084 140.054 28.1562 140.014 28.1157C139.973 28.0754 139.924 28.0552 139.866 28.0552H138.999ZM140.186 23.2661C140.133 23.2661 140.09 23.2841 140.056 23.3188C140.021 23.3535 140.003 23.3967 140.003 23.4487C140.003 23.4719 140.009 23.498 140.021 23.5269L141.877 29.0962C141.9 29.1655 141.938 29.2228 141.99 29.269C142.042 29.3153 142.114 29.3394 142.207 29.3394H143.161C143.254 29.3393 143.326 29.3153 143.378 29.269C143.43 29.2229 143.467 29.1653 143.49 29.0962L145.36 23.4858C145.363 23.4728 145.364 23.4603 145.364 23.4487C145.364 23.3967 145.344 23.3535 145.304 23.3188C145.269 23.2842 145.229 23.2662 145.183 23.2661H144.419C144.338 23.2661 144.275 23.2895 144.229 23.3354C144.188 23.3759 144.162 23.417 144.15 23.4575L142.684 27.9253L141.218 23.4575C141.206 23.417 141.177 23.3759 141.131 23.3354C141.09 23.2895 141.03 23.2662 140.949 23.2661H140.186ZM146.49 23.2661C146.433 23.2661 146.383 23.2863 146.343 23.3267C146.302 23.3671 146.282 23.4194 146.282 23.4829V29.1304C146.282 29.1881 146.302 29.2374 146.343 29.2778C146.383 29.3183 146.432 29.3383 146.49 29.3384H147.219C147.282 29.3384 147.335 29.3183 147.375 29.2778C147.415 29.2373 147.436 29.1882 147.436 29.1304V25.3999L149.926 29.1997C149.943 29.2113 149.969 29.2374 150.004 29.2778C150.039 29.3182 150.096 29.3383 150.177 29.3384H150.854C150.911 29.3384 150.961 29.3182 151.001 29.2778C151.041 29.2373 151.062 29.1852 151.062 29.1216V23.4829C151.062 23.4194 151.041 23.3671 151.001 23.3267C150.961 23.2864 150.908 23.2661 150.845 23.2661H150.116C150.053 23.2662 150 23.2862 149.96 23.3267C149.925 23.3671 149.908 23.4194 149.908 23.4829V27.2915L147.41 23.4048C147.399 23.3874 147.372 23.3613 147.332 23.3267C147.297 23.2862 147.239 23.2661 147.158 23.2661H146.49Z" fill="white"/>
<path d="M158.643 33.4188C158.643 33.7491 158.478 34.1785 158.049 34.1785C158.016 34.1785 157.586 34.1785 157.487 33.7161C157.454 33.6501 157.454 33.551 157.454 33.3858C157.454 32.8573 157.785 32.6592 158.049 32.6592C158.346 32.6592 158.676 32.9234 158.643 33.4188ZM156.86 31.1729V34.674H157.454V34.4097C157.586 34.5749 157.818 34.74 158.148 34.74C158.743 34.74 159.271 34.2116 159.271 33.4188C159.271 32.6261 158.743 32.0977 158.181 32.0977C157.917 32.0977 157.652 32.1968 157.454 32.3949V31.1729H156.86Z" fill="white"/>
<path d="M161.65 32.1966L161.022 34.3766L160.89 34.839C160.725 35.3675 160.526 35.5325 160.064 35.5325C159.866 35.5325 159.767 35.4996 159.701 35.4996V34.9711C159.767 34.9711 159.8 34.9711 159.866 34.9711C159.899 34.9711 160.031 34.9711 160.13 34.905C160.196 34.872 160.262 34.7399 160.262 34.7069L159.37 32.1636H159.998L160.56 34.0132L161.022 32.1636H161.65V32.1966Z" fill="white"/>
<path d="M175.82 34.4745H176.184C176.217 34.4745 176.217 34.4745 176.25 34.4415L177.736 32.0304L178.529 34.8048C178.529 34.8379 178.562 34.8379 178.562 34.8379H180.114C180.148 34.8379 180.148 34.8379 180.148 34.8048L178.496 29.6192C178.496 29.5862 178.463 29.5862 178.463 29.5862H177.868C177.836 29.5862 177.836 29.5862 177.802 29.6192L175.82 32.724L173.838 29.6192C173.838 29.6192 173.805 29.5862 173.772 29.5862H173.178C173.145 29.5862 173.145 29.5862 173.145 29.6192L171.493 34.8048C171.493 34.8379 171.493 34.8379 171.526 34.8379H173.079C173.112 34.8379 173.112 34.8379 173.112 34.8048L173.904 32.0304L175.391 34.4415C175.391 34.4415 175.424 34.4745 175.457 34.4745H175.82Z" fill="white"/>
<path d="M171.559 31.8986C171.559 31.8655 171.559 31.8655 171.559 31.8986L171.328 31.8655H169.809H167.133C166.902 31.8655 166.704 32.0637 166.704 32.2949C166.704 32.5261 166.902 32.7243 167.133 32.7243H169.776C169.479 33.55 168.388 34.1446 167.133 34.1446C165.614 34.1446 164.424 33.2858 164.424 32.1958C164.424 31.1058 165.647 30.2471 167.133 30.2471C167.959 30.2471 168.686 30.5113 169.181 30.9077C169.181 30.9077 169.181 30.9077 169.214 30.9077H171.031C171.064 30.9077 171.064 30.9077 171.064 30.8746C171.064 30.8746 171.064 30.8746 171.064 30.8416C170.304 30.0159 168.818 29.4543 167.166 29.4543C164.689 29.4543 162.674 30.6765 162.674 32.1628C162.674 33.6491 164.689 34.8712 167.166 34.8712C169.644 34.8712 171.659 33.6491 171.659 32.1628C171.593 32.0967 171.593 31.9976 171.559 31.8986Z" fill="white"/>
<path d="M184.508 29.52C182.03 29.52 180.015 30.7421 180.015 32.2284C180.015 33.7148 182.03 34.9368 184.508 34.9368C186.985 34.9368 189 33.7148 189 32.2284C189 30.7091 186.985 29.52 184.508 29.52ZM184.508 34.1442C182.988 34.1442 181.799 33.2854 181.799 32.1954C181.799 31.1054 183.021 30.2467 184.508 30.2467C186.027 30.2467 187.217 31.1054 187.217 32.1954C187.217 33.2854 185.994 34.1442 184.508 34.1442Z" fill="white"/>
</svg>
